<svg xmlns="http://www.w3.org/2000/svg" viewBox="0 0 1630 1686" role="img" aria-label="Appico" class="appico-logo-svg">
<path fill="#7efaec" fill-rule="evenodd" d="M 994,1 L 992,4 L 992,11 L 995,18 L 1003,30 L 1009,28 L 1010,23 L 1004,10 L 997,2 Z" class="logo-shard" data-growth="64" data-sector="1" style="--gi:64"/>
<path fill="#7cf9ec" fill-rule="evenodd" d="M 891,14 L 890,16 L 891,38 L 892,42 L 898,42 L 899,41 L 899,34 L 898,33 L 897,18 L 895,14 Z" class="logo-shard" data-growth="61" data-sector="0" style="--gi:61"/>
<path fill="#50dacd" fill-rule="evenodd" d="M 1013,43 L 1011,45 L 1011,55 L 1016,74 L 1019,78 L 1027,78 L 1031,76 L 1031,70 L 1029,64 L 1027,62 L 1026,57 L 1024,55 L 1019,43 Z" class="logo-shard" data-growth="57" data-sector="1" style="--gi:57"/>
<path fill="#5ae2d4" fill-rule="evenodd" d="M 896,59 L 895,60 L 895,67 L 900,87 L 904,94 L 910,95 L 916,91 L 915,82 L 904,59 Z" class="logo-shard" data-growth="54" data-sector="0" style="--gi:54"/>
<path fill="#45cdc3" fill-rule="evenodd" d="M 1025,95 L 1023,97 L 1023,104 L 1028,121 L 1031,141 L 1036,146 L 1048,146 L 1050,145 L 1049,130 L 1038,94 Z" class="logo-shard" data-growth="48" data-sector="1" style="--gi:48"/>
<path fill="#4ad6c9" fill-rule="evenodd" d="M 913,109 L 914,119 L 929,142 L 936,155 L 941,161 L 944,162 L 949,161 L 952,158 L 955,152 L 939,130 L 927,107 L 925,105 L 921,105 Z" class="logo-shard" data-growth="42" data-sector="0" style="--gi:42"/>
<path fill="#7bf9eb" fill-rule="evenodd" d="M 789,129 L 786,130 L 783,138 L 782,151 L 784,153 L 787,153 L 790,150 L 792,130 Z" class="logo-shard" data-growth="44" data-sector="0" style="--gi:44"/>
<path fill="#175b73" fill-rule="evenodd" d="M 608,142 L 601,148 L 599,152 L 597,152 L 588,163 L 582,173 L 572,200 L 570,202 L 567,213 L 564,218 L 563,223 L 549,256 L 545,270 L 537,287 L 533,301 L 522,326 L 492,407 L 464,476 L 462,485 L 454,502 L 447,524 L 437,546 L 436,551 L 430,564 L 418,598 L 415,603 L 405,632 L 400,642 L 400,645 L 396,653 L 390,671 L 379,696 L 379,699 L 375,710 L 365,732 L 364,737 L 358,750 L 358,753 L 350,771 L 346,784 L 343,789 L 333,818 L 328,828 L 328,831 L 324,839 L 323,844 L 311,872 L 310,877 L 307,882 L 294,919 L 289,929 L 285,943 L 277,960 L 258,1014 L 256,1016 L 256,1019 L 250,1032 L 244,1050 L 241,1055 L 241,1058 L 232,1079 L 229,1089 L 226,1094 L 226,1097 L 222,1105 L 216,1123 L 211,1133 L 208,1144 L 194,1177 L 193,1182 L 190,1187 L 190,1190 L 186,1201 L 180,1212 L 172,1236 L 163,1256 L 160,1267 L 149,1292 L 130,1345 L 118,1373 L 114,1387 L 110,1394 L 107,1404 L 107,1408 L 110,1411 L 119,1416 L 121,1416 L 125,1413 L 131,1401 L 136,1386 L 147,1363 L 165,1334 L 190,1301 L 206,1283 L 231,1258 L 240,1251 L 261,1231 L 266,1228 L 288,1209 L 319,1186 L 322,1185 L 341,1171 L 354,1164 L 360,1159 L 362,1159 L 378,1150 L 394,1144 L 416,1132 L 423,1131 L 426,1129 L 430,1129 L 447,1123 L 455,1122 L 459,1120 L 463,1120 L 471,1117 L 476,1117 L 483,1114 L 488,1114 L 498,1111 L 509,1111 L 528,1107 L 551,1106 L 552,1105 L 563,1104 L 568,1102 L 580,1102 L 581,1101 L 586,1102 L 653,1102 L 654,1103 L 667,1103 L 668,1104 L 677,1104 L 680,1106 L 686,1106 L 687,1107 L 696,1107 L 705,1110 L 720,1111 L 725,1114 L 729,1114 L 733,1116 L 754,1120 L 761,1123 L 787,1130 L 836,1150 L 847,1156 L 849,1156 L 903,1186 L 936,1209 L 966,1233 L 1004,1270 L 1034,1304 L 1046,1319 L 1069,1352 L 1084,1377 L 1087,1384 L 1087,1387 L 1075,1399 L 1052,1429 L 1045,1442 L 1044,1449 L 1048,1452 L 1054,1452 L 1073,1426 L 1085,1414 L 1099,1405 L 1102,1414 L 1108,1424 L 1115,1441 L 1117,1443 L 1117,1446 L 1123,1458 L 1123,1461 L 1129,1473 L 1132,1485 L 1138,1498 L 1145,1523 L 1149,1527 L 1155,1527 L 1160,1524 L 1158,1506 L 1154,1488 L 1152,1484 L 1153,1481 L 1190,1481 L 1191,1482 L 1200,1482 L 1213,1485 L 1220,1488 L 1227,1493 L 1247,1515 L 1258,1515 L 1266,1512 L 1266,1506 L 1261,1500 L 1264,1499 L 1281,1505 L 1285,1508 L 1302,1515 L 1304,1517 L 1313,1519 L 1320,1509 L 1321,1503 L 1319,1501 L 1299,1492 L 1303,1489 L 1315,1487 L 1318,1485 L 1329,1482 L 1331,1480 L 1331,1471 L 1329,1469 L 1312,1469 L 1311,1470 L 1298,1471 L 1291,1473 L 1283,1478 L 1270,1479 L 1269,1478 L 1264,1478 L 1253,1473 L 1240,1469 L 1213,1463 L 1188,1461 L 1187,1460 L 1144,1459 L 1133,1429 L 1131,1427 L 1130,1422 L 1125,1414 L 1122,1405 L 1119,1401 L 1119,1399 L 1116,1395 L 1112,1385 L 1107,1378 L 1106,1374 L 1101,1367 L 1101,1365 L 1098,1362 L 1098,1360 L 1087,1343 L 1083,1333 L 1118,1318 L 1124,1317 L 1127,1315 L 1133,1314 L 1146,1309 L 1153,1308 L 1160,1305 L 1164,1305 L 1168,1303 L 1176,1302 L 1185,1299 L 1191,1299 L 1222,1293 L 1231,1293 L 1240,1291 L 1322,1291 L 1323,1292 L 1332,1292 L 1341,1294 L 1354,1294 L 1356,1296 L 1356,1298 L 1360,1301 L 1360,1304 L 1365,1318 L 1371,1331 L 1373,1333 L 1380,1332 L 1385,1327 L 1385,1322 L 1379,1308 L 1379,1303 L 1378,1302 L 1380,1300 L 1386,1302 L 1393,1302 L 1404,1305 L 1415,1306 L 1419,1308 L 1424,1308 L 1431,1311 L 1439,1312 L 1442,1314 L 1446,1314 L 1450,1316 L 1460,1317 L 1461,1318 L 1463,1318 L 1465,1314 L 1465,1307 L 1463,1304 L 1419,1287 L 1381,1280 L 1372,1277 L 1338,1274 L 1333,1272 L 1326,1272 L 1325,1271 L 1258,1270 L 1257,1271 L 1238,1271 L 1237,1272 L 1228,1272 L 1221,1274 L 1213,1274 L 1212,1275 L 1177,1280 L 1168,1283 L 1151,1286 L 1124,1295 L 1121,1295 L 1080,1312 L 1068,1315 L 1066,1313 L 1065,1308 L 1060,1301 L 1042,1282 L 1037,1274 L 1003,1238 L 983,1220 L 933,1181 L 897,1157 L 890,1154 L 887,1151 L 880,1148 L 871,1142 L 869,1142 L 864,1138 L 866,1135 L 868,1135 L 872,1132 L 891,1125 L 893,1123 L 896,1123 L 902,1120 L 906,1120 L 913,1117 L 939,1113 L 959,1108 L 975,1107 L 987,1104 L 1006,1103 L 1011,1101 L 1048,1100 L 1049,1099 L 1058,1099 L 1068,1101 L 1078,1105 L 1088,1111 L 1102,1123 L 1111,1129 L 1114,1129 L 1119,1126 L 1124,1120 L 1124,1115 L 1115,1106 L 1116,1104 L 1129,1105 L 1151,1111 L 1169,1114 L 1192,1120 L 1195,1122 L 1197,1122 L 1199,1120 L 1203,1112 L 1202,1109 L 1200,1109 L 1196,1106 L 1175,1097 L 1128,1084 L 1116,1083 L 1115,1082 L 1106,1082 L 1105,1081 L 1091,1081 L 1090,1080 L 1029,1080 L 1028,1081 L 1010,1081 L 1009,1082 L 987,1083 L 980,1085 L 974,1085 L 966,1088 L 956,1088 L 955,1089 L 923,1094 L 910,1098 L 906,1098 L 902,1100 L 894,1101 L 881,1106 L 875,1107 L 863,1112 L 841,1124 L 830,1124 L 825,1121 L 785,1106 L 761,1100 L 758,1098 L 714,1088 L 693,1086 L 692,1085 L 682,1085 L 671,1082 L 643,1081 L 642,1080 L 583,1079 L 582,1080 L 563,1080 L 562,1081 L 553,1081 L 552,1082 L 546,1082 L 545,1081 L 547,1079 L 557,1075 L 561,1075 L 569,1072 L 573,1072 L 581,1069 L 585,1069 L 589,1067 L 602,1065 L 607,1063 L 618,1062 L 630,1059 L 637,1059 L 643,1057 L 653,1057 L 656,1055 L 661,1055 L 662,1054 L 673,1054 L 685,1051 L 697,1050 L 701,1048 L 705,1048 L 713,1045 L 720,1044 L 723,1042 L 730,1041 L 733,1039 L 737,1039 L 743,1036 L 759,1032 L 762,1030 L 765,1030 L 770,1027 L 773,1027 L 778,1024 L 781,1024 L 786,1021 L 797,1018 L 801,1015 L 804,1015 L 839,1000 L 843,997 L 845,997 L 861,988 L 863,988 L 867,985 L 877,981 L 890,973 L 898,970 L 901,967 L 903,967 L 911,961 L 922,955 L 938,943 L 940,943 L 944,940 L 947,940 L 968,957 L 992,972 L 1025,987 L 1031,988 L 1034,990 L 1040,991 L 1055,997 L 1070,1000 L 1078,1000 L 1084,1002 L 1098,1003 L 1102,1005 L 1165,1005 L 1168,1003 L 1183,1003 L 1204,1029 L 1219,1044 L 1242,1063 L 1243,1065 L 1265,1081 L 1290,1096 L 1292,1096 L 1294,1098 L 1329,1115 L 1336,1117 L 1346,1122 L 1364,1127 L 1367,1129 L 1375,1128 L 1376,1115 L 1340,1100 L 1336,1097 L 1315,1088 L 1320,1081 L 1331,1074 L 1337,1067 L 1338,1064 L 1331,1056 L 1326,1054 L 1321,1055 L 1296,1075 L 1289,1073 L 1253,1047 L 1224,1020 L 1212,1006 L 1207,998 L 1208,997 L 1215,997 L 1230,991 L 1229,982 L 1225,977 L 1200,978 L 1199,979 L 1188,980 L 1182,983 L 1142,984 L 1141,985 L 1114,984 L 1112,982 L 1122,972 L 1125,966 L 1125,963 L 1118,957 L 1114,955 L 1110,955 L 1087,978 L 1085,979 L 1071,979 L 1033,968 L 1007,956 L 973,935 L 966,928 L 965,923 L 1005,890 L 1045,850 L 1075,811 L 1098,778 L 1117,754 L 1123,749 L 1128,748 L 1153,761 L 1171,767 L 1174,769 L 1181,770 L 1184,772 L 1209,778 L 1214,778 L 1218,780 L 1227,781 L 1229,779 L 1230,769 L 1231,768 L 1230,762 L 1193,753 L 1175,747 L 1148,736 L 1140,731 L 1145,725 L 1200,683 L 1207,680 L 1211,680 L 1222,689 L 1224,689 L 1235,695 L 1245,697 L 1250,686 L 1250,682 L 1246,678 L 1228,669 L 1227,667 L 1233,662 L 1235,662 L 1271,641 L 1277,640 L 1285,635 L 1312,625 L 1314,623 L 1317,623 L 1332,617 L 1336,617 L 1343,614 L 1347,614 L 1369,608 L 1393,605 L 1399,602 L 1474,598 L 1477,597 L 1479,594 L 1479,583 L 1474,580 L 1469,579 L 1438,579 L 1437,580 L 1420,580 L 1411,582 L 1402,582 L 1395,585 L 1385,585 L 1384,583 L 1392,575 L 1406,566 L 1410,561 L 1409,553 L 1405,549 L 1398,549 L 1388,553 L 1375,562 L 1350,588 L 1346,591 L 1344,591 L 1341,594 L 1331,598 L 1317,601 L 1299,607 L 1297,609 L 1294,609 L 1283,615 L 1280,615 L 1269,621 L 1264,622 L 1245,633 L 1241,634 L 1234,639 L 1232,639 L 1210,652 L 1204,657 L 1180,672 L 1148,696 L 1134,708 L 1099,744 L 1062,793 L 1061,792 L 1061,763 L 1060,762 L 1046,762 L 1044,765 L 1037,816 L 1034,827 L 1030,835 L 1012,854 L 969,893 L 932,921 L 907,938 L 877,956 L 873,957 L 853,969 L 851,969 L 814,987 L 804,990 L 802,992 L 789,996 L 787,998 L 782,999 L 779,1001 L 776,1001 L 771,1004 L 768,1004 L 763,1007 L 760,1007 L 754,1010 L 751,1010 L 718,1022 L 710,1023 L 707,1025 L 704,1025 L 698,1028 L 694,1028 L 689,1030 L 668,1032 L 667,1031 L 671,1027 L 673,1027 L 706,1000 L 730,982 L 765,951 L 810,904 L 832,878 L 858,844 L 862,837 L 862,835 L 867,831 L 868,826 L 873,823 L 879,812 L 879,810 L 883,808 L 883,804 L 892,795 L 912,759 L 926,737 L 968,653 L 1001,573 L 1009,566 L 1016,563 L 1019,563 L 1044,551 L 1063,538 L 1057,528 L 1051,528 L 1023,540 L 1020,540 L 1016,542 L 1014,541 L 1014,538 L 1022,519 L 1022,516 L 1026,506 L 1026,502 L 1034,483 L 1034,480 L 1038,470 L 1038,466 L 1040,463 L 1041,457 L 1044,450 L 1050,426 L 1050,421 L 1053,413 L 1053,407 L 1055,402 L 1057,387 L 1059,385 L 1061,362 L 1064,352 L 1065,331 L 1067,326 L 1067,244 L 1065,237 L 1064,214 L 1061,207 L 1058,178 L 1056,169 L 1053,163 L 1037,163 L 1038,178 L 1041,189 L 1041,198 L 1042,199 L 1040,202 L 1037,202 L 1019,196 L 1017,194 L 1013,193 L 1003,187 L 1001,187 L 986,178 L 970,166 L 963,166 L 956,173 L 954,177 L 965,188 L 991,206 L 995,207 L 1005,213 L 1008,213 L 1010,215 L 1027,220 L 1030,222 L 1033,222 L 1036,224 L 1046,226 L 1046,262 L 1048,271 L 1048,297 L 1046,306 L 1045,340 L 1044,341 L 1042,366 L 1038,379 L 1036,397 L 1025,442 L 1022,449 L 1013,482 L 1001,513 L 997,528 L 986,554 L 983,564 L 980,569 L 974,587 L 971,592 L 971,595 L 953,634 L 952,642 L 950,645 L 948,644 L 948,640 L 951,624 L 951,576 L 949,572 L 949,565 L 948,564 L 948,547 L 947,546 L 946,533 L 942,519 L 939,496 L 937,494 L 936,484 L 930,467 L 927,452 L 918,426 L 915,421 L 903,387 L 901,384 L 898,370 L 913,367 L 923,362 L 931,356 L 947,341 L 951,334 L 952,327 L 942,323 L 939,323 L 926,337 L 916,344 L 906,349 L 895,350 L 893,348 L 892,337 L 889,326 L 873,326 L 872,327 L 873,350 L 882,388 L 881,392 L 854,365 L 848,366 L 839,373 L 839,377 L 850,391 L 882,421 L 896,432 L 905,447 L 905,450 L 907,453 L 909,464 L 911,468 L 911,473 L 914,481 L 918,502 L 921,508 L 923,528 L 930,564 L 929,640 L 928,641 L 928,650 L 926,654 L 923,677 L 920,685 L 920,689 L 918,693 L 914,713 L 908,727 L 887,763 L 876,779 L 871,790 L 866,794 L 865,798 L 860,804 L 855,814 L 853,816 L 851,816 L 842,830 L 830,845 L 820,855 L 819,853 L 832,818 L 832,814 L 834,811 L 835,803 L 838,795 L 838,790 L 840,786 L 841,775 L 843,768 L 844,749 L 845,748 L 846,685 L 845,684 L 843,656 L 841,651 L 841,645 L 838,635 L 838,631 L 832,617 L 832,614 L 829,609 L 828,603 L 823,592 L 823,589 L 808,550 L 808,547 L 805,542 L 805,539 L 802,533 L 802,530 L 799,524 L 795,509 L 793,507 L 793,504 L 790,498 L 786,483 L 778,465 L 778,462 L 775,456 L 772,444 L 763,423 L 763,419 L 760,413 L 757,401 L 754,396 L 754,393 L 751,388 L 747,373 L 745,370 L 741,357 L 739,355 L 739,352 L 736,346 L 732,330 L 727,319 L 727,316 L 724,311 L 724,308 L 721,302 L 714,278 L 712,275 L 711,270 L 709,268 L 709,265 L 706,259 L 706,255 L 700,241 L 700,238 L 697,233 L 697,230 L 695,227 L 691,212 L 688,207 L 688,204 L 685,198 L 678,175 L 667,158 L 658,149 L 645,140 L 636,137 L 621,137 Z M 637,162 L 644,167 L 652,175 L 660,188 L 663,195 L 663,198 L 668,208 L 670,216 L 672,219 L 672,222 L 675,228 L 675,231 L 678,237 L 678,240 L 686,259 L 687,265 L 689,267 L 690,273 L 696,288 L 696,291 L 707,319 L 711,334 L 713,336 L 714,342 L 716,345 L 720,358 L 722,360 L 722,363 L 725,369 L 726,375 L 728,378 L 728,381 L 735,399 L 735,402 L 743,421 L 743,424 L 746,430 L 750,445 L 753,450 L 753,453 L 755,455 L 755,458 L 758,464 L 758,467 L 761,473 L 761,476 L 764,482 L 764,485 L 767,491 L 770,503 L 773,508 L 774,513 L 779,524 L 780,530 L 782,533 L 783,539 L 794,566 L 794,569 L 797,575 L 797,578 L 800,584 L 800,587 L 803,593 L 806,605 L 812,618 L 812,621 L 814,624 L 821,647 L 822,657 L 824,663 L 824,670 L 825,671 L 825,752 L 823,758 L 823,764 L 822,765 L 822,771 L 821,772 L 821,778 L 818,793 L 816,797 L 815,804 L 813,807 L 812,814 L 810,817 L 809,823 L 807,826 L 803,839 L 794,857 L 794,859 L 781,883 L 770,900 L 753,922 L 730,946 L 702,971 L 660,1004 L 638,1017 L 632,1022 L 630,1022 L 608,1034 L 580,1046 L 575,1047 L 573,1049 L 567,1050 L 556,1055 L 553,1055 L 547,1058 L 544,1058 L 538,1061 L 535,1061 L 529,1064 L 514,1068 L 512,1070 L 509,1070 L 503,1073 L 500,1073 L 494,1076 L 479,1080 L 476,1082 L 471,1083 L 469,1085 L 466,1085 L 455,1091 L 450,1092 L 442,1097 L 433,1100 L 429,1103 L 420,1106 L 410,1112 L 382,1124 L 367,1133 L 363,1134 L 356,1139 L 352,1139 L 345,1143 L 313,1166 L 307,1169 L 300,1175 L 294,1178 L 252,1211 L 212,1247 L 183,1279 L 178,1283 L 177,1281 L 188,1255 L 207,1200 L 220,1170 L 228,1146 L 236,1129 L 237,1124 L 251,1089 L 251,1084 L 266,1048 L 281,1006 L 299,964 L 302,953 L 311,932 L 311,929 L 326,894 L 326,891 L 332,879 L 332,876 L 335,871 L 338,860 L 341,855 L 341,852 L 353,824 L 353,821 L 358,812 L 365,790 L 373,773 L 380,752 L 383,747 L 383,744 L 386,739 L 392,721 L 395,716 L 395,713 L 398,708 L 398,705 L 401,700 L 401,697 L 403,695 L 410,674 L 413,669 L 413,666 L 416,661 L 416,658 L 418,656 L 422,643 L 433,618 L 435,610 L 440,599 L 440,596 L 443,591 L 443,588 L 452,569 L 455,558 L 458,553 L 458,550 L 460,548 L 464,535 L 469,525 L 470,519 L 472,517 L 482,488 L 485,483 L 488,472 L 490,470 L 497,449 L 500,444 L 500,441 L 502,439 L 503,434 L 506,429 L 506,426 L 508,424 L 524,379 L 529,370 L 539,341 L 544,331 L 557,294 L 574,253 L 592,203 L 599,188 L 608,173 L 620,162 L 627,160 Z" class="logo-shard" data-growth="0" data-sector="0" style="--gi:0"/>
<path fill="#48d5c8" fill-rule="evenodd" d="M 782,167 L 777,169 L 776,172 L 776,204 L 778,205 L 786,204 L 786,199 L 787,198 L 787,169 Z" class="logo-shard" data-growth="36" data-sector="0" style="--gi:36"/>
<path fill="#74f9ea" fill-rule="evenodd" d="M 908,172 L 906,173 L 900,183 L 901,188 L 906,186 L 910,178 L 910,174 Z" class="logo-shard" data-growth="38" data-sector="0" style="--gi:38"/>
<path fill="#48d5c8" fill-rule="evenodd" d="M 895,207 L 890,207 L 886,211 L 881,226 L 881,234 L 882,235 L 892,236 L 895,230 L 895,225 L 897,218 L 897,209 Z" class="logo-shard" data-growth="31" data-sector="0" style="--gi:31"/>
<path fill="#32a9a9" fill-rule="evenodd" d="M 777,219 L 776,220 L 776,254 L 779,270 L 795,270 L 796,260 L 793,251 L 788,221 L 787,219 Z" class="logo-shard" data-growth="26" data-sector="0" style="--gi:26"/>
<path fill="#79f9ea" fill-rule="evenodd" d="M 979,249 L 974,250 L 971,261 L 971,267 L 975,269 L 979,262 L 980,257 Z" class="logo-shard" data-growth="30" data-sector="0" style="--gi:30"/>
<path fill="#4ad6c9" fill-rule="evenodd" d="M 877,253 L 873,260 L 869,303 L 871,306 L 887,306 L 889,303 L 890,258 L 885,253 Z" class="logo-shard" data-growth="24" data-sector="0" style="--gi:24"/>
<path fill="#48d5c8" fill-rule="evenodd" d="M 971,283 L 967,283 L 964,286 L 956,301 L 955,310 L 960,314 L 963,314 L 969,306 L 973,291 L 973,285 Z" class="logo-shard" data-growth="22" data-sector="0" style="--gi:22"/>
<path fill="#33a9a9" fill-rule="evenodd" d="M 791,289 L 789,291 L 789,297 L 804,331 L 817,350 L 822,355 L 828,359 L 830,359 L 841,349 L 839,344 L 824,322 L 814,304 L 814,302 L 811,298 L 807,288 L 805,286 L 799,286 L 796,288 Z" class="logo-shard" data-growth="18" data-sector="0" style="--gi:18"/>
<path fill="#7dfaeb" fill-rule="evenodd" d="M 1139,406 L 1137,406 L 1135,408 L 1135,411 L 1133,415 L 1132,421 L 1135,425 L 1139,424 L 1141,422 L 1143,416 L 1143,409 Z" class="logo-shard" data-growth="21" data-sector="1" style="--gi:21"/>
<path fill="#3cbab5" fill-rule="evenodd" d="M 1133,438 L 1127,437 L 1124,439 L 1112,461 L 1113,468 L 1117,469 L 1121,468 L 1122,464 L 1131,448 Z" class="logo-shard" data-growth="13" data-sector="1" style="--gi:13"/>
<path fill="#228990" fill-rule="evenodd" d="M 1109,484 L 1101,482 L 1094,489 L 1094,491 L 1071,513 L 1069,519 L 1073,524 L 1078,527 L 1093,514 L 1104,500 L 1109,490 Z" class="logo-shard" data-growth="7" data-sector="1" style="--gi:7"/>
<path fill="#32a9a9" fill-rule="evenodd" d="M 1474,526 L 1472,523 L 1463,523 L 1452,526 L 1422,539 L 1422,545 L 1427,550 L 1430,551 L 1440,545 L 1474,532 Z" class="logo-shard" data-growth="33" data-sector="1" style="--gi:33"/>
<path fill="#43d3c7" fill-rule="evenodd" d="M 1492,522 L 1492,527 L 1494,529 L 1509,529 L 1516,527 L 1516,522 Z" class="logo-shard" data-growth="41" data-sector="1" style="--gi:41"/>
<path fill="#76f7e9" fill-rule="evenodd" d="M 1533,528 L 1537,531 L 1543,533 L 1546,533 L 1549,531 L 1548,526 L 1540,525 L 1535,523 Z" class="logo-shard" data-growth="52" data-sector="1" style="--gi:52"/>
<path fill="#49d6c9" fill-rule="evenodd" d="M 1497,587 L 1497,596 L 1502,598 L 1517,599 L 1518,600 L 1533,601 L 1534,602 L 1546,602 L 1547,603 L 1551,599 L 1550,594 L 1536,589 L 1526,588 L 1505,583 L 1499,583 Z" class="logo-shard" data-growth="40" data-sector="1" style="--gi:40"/>
<path fill="#46d5c8" fill-rule="evenodd" d="M 1568,601 L 1567,605 L 1568,608 L 1588,614 L 1592,614 L 1594,611 L 1594,609 L 1592,607 L 1585,604 L 1577,603 L 1574,601 Z" class="logo-shard" data-growth="50" data-sector="2" style="--gi:50"/>
<path fill="#76f8eb" fill-rule="evenodd" d="M 1611,617 L 1612,622 L 1619,625 L 1627,626 L 1627,623 L 1625,621 L 1618,618 Z" class="logo-shard" data-growth="55" data-sector="2" style="--gi:55"/>
<path fill="#6ff4e6" fill-rule="evenodd" d="M 1398,669 L 1391,669 L 1381,674 L 1380,678 L 1387,680 L 1391,678 L 1397,672 Z" class="logo-shard" data-growth="23" data-sector="1" style="--gi:23"/>
<path fill="#75f7e9" fill-rule="evenodd" d="M 1049,674 L 1048,675 L 1049,690 L 1051,692 L 1053,692 L 1055,686 L 1054,676 L 1052,674 Z" class="logo-shard" data-growth="3" data-sector="0" style="--gi:3"/>
<path fill="#48d5c8" fill-rule="evenodd" d="M 1364,683 L 1362,681 L 1353,681 L 1346,684 L 1338,685 L 1335,687 L 1334,693 L 1339,696 L 1344,696 L 1352,694 L 1355,692 L 1359,692 L 1364,689 Z" class="logo-shard" data-growth="16" data-sector="1" style="--gi:16"/>
<path fill="#31a8a9" fill-rule="evenodd" d="M 1262,702 L 1289,703 L 1290,702 L 1309,701 L 1317,699 L 1316,690 L 1295,690 L 1294,689 L 1267,687 L 1264,692 Z" class="logo-shard" data-growth="11" data-sector="1" style="--gi:11"/>
<path fill="#77f9eb" fill-rule="evenodd" d="M 1572,694 L 1568,696 L 1563,701 L 1560,707 L 1561,709 L 1564,709 L 1570,703 L 1573,698 Z" class="logo-shard" data-growth="45" data-sector="2" style="--gi:45"/>
<path fill="#2fa7a8" fill-rule="evenodd" d="M 1050,710 L 1046,717 L 1046,743 L 1048,744 L 1059,744 L 1060,743 L 1059,716 L 1057,711 Z" class="logo-shard" data-growth="1" data-sector="0" style="--gi:1"/>
<path fill="#43d3c6" fill-rule="evenodd" d="M 1545,721 L 1544,720 L 1539,721 L 1525,731 L 1519,738 L 1520,739 L 1526,738 L 1538,730 L 1544,724 Z" class="logo-shard" data-growth="37" data-sector="2" style="--gi:37"/>
<path fill="#30a8a8" fill-rule="evenodd" d="M 1504,747 L 1499,744 L 1492,747 L 1489,747 L 1484,750 L 1478,751 L 1467,756 L 1461,757 L 1457,760 L 1458,761 L 1458,767 L 1462,769 L 1467,768 L 1476,763 L 1502,752 Z" class="logo-shard" data-growth="28" data-sector="2" style="--gi:28"/>
<path fill="#279297" fill-rule="evenodd" d="M 1442,770 L 1439,765 L 1430,765 L 1410,770 L 1369,776 L 1365,778 L 1365,788 L 1366,790 L 1382,789 L 1436,778 L 1441,775 Z" class="logo-shard" data-growth="19" data-sector="2" style="--gi:19"/>
<path fill="#33a9a9" fill-rule="evenodd" d="M 1246,774 L 1246,783 L 1255,787 L 1270,790 L 1279,790 L 1280,791 L 1348,791 L 1349,789 L 1349,781 L 1346,778 L 1298,776 L 1297,775 L 1281,774 L 1270,771 L 1254,770 L 1253,769 L 1248,770 Z" class="logo-shard" data-growth="9" data-sector="1" style="--gi:9"/>
<path fill="#7afaeb" fill-rule="evenodd" d="M 1214,817 L 1210,818 L 1199,837 L 1200,841 L 1202,843 L 1207,842 L 1211,836 L 1214,826 L 1214,819 L 1215,818 Z" class="logo-shard" data-growth="5" data-sector="1" style="--gi:5"/>
<path fill="#2fa7a7" fill-rule="evenodd" d="M 1193,856 L 1188,856 L 1171,880 L 1168,887 L 1169,891 L 1173,893 L 1177,893 L 1181,889 L 1182,886 L 1191,874 L 1191,872 L 1196,866 L 1197,862 L 1196,859 Z" class="logo-shard" data-growth="4" data-sector="1" style="--gi:4"/>
<path fill="#1e7e87" fill-rule="evenodd" d="M 1163,907 L 1155,903 L 1153,904 L 1141,920 L 1126,936 L 1125,943 L 1138,950 L 1140,949 L 1161,918 L 1164,912 Z" class="logo-shard" data-growth="2" data-sector="0" style="--gi:2"/>
<path fill="#78f9ea" fill-rule="evenodd" d="M 1315,958 L 1308,958 L 1297,962 L 1296,967 L 1299,968 L 1307,966 L 1309,964 L 1313,963 Z" class="logo-shard" data-growth="14" data-sector="2" style="--gi:14"/>
<path fill="#45cfc4" fill-rule="evenodd" d="M 1278,971 L 1276,968 L 1271,968 L 1261,971 L 1252,972 L 1248,974 L 1245,974 L 1245,979 L 1248,984 L 1258,984 L 1278,977 Z" class="logo-shard" data-growth="8" data-sector="2" style="--gi:8"/>
<path fill="#31a8a9" fill-rule="evenodd" d="M 1429,1016 L 1430,1025 L 1432,1026 L 1474,1024 L 1475,1023 L 1481,1023 L 1483,1021 L 1483,1017 L 1481,1014 L 1439,1014 Z" class="logo-shard" data-growth="27" data-sector="2" style="--gi:27"/>
<path fill="#2fa7a7" fill-rule="evenodd" d="M 1502,1018 L 1502,1024 L 1507,1027 L 1525,1029 L 1526,1030 L 1537,1030 L 1538,1026 L 1536,1024 L 1528,1020 L 1513,1019 L 1505,1017 Z" class="logo-shard" data-growth="34" data-sector="2" style="--gi:34"/>
<path fill="#32a9a9" fill-rule="evenodd" d="M 1409,1020 L 1406,1019 L 1395,1020 L 1381,1026 L 1361,1032 L 1359,1034 L 1357,1034 L 1348,1039 L 1345,1042 L 1344,1045 L 1345,1048 L 1349,1053 L 1353,1055 L 1359,1054 L 1366,1049 L 1378,1044 L 1380,1042 L 1383,1042 L 1398,1036 L 1409,1030 Z" class="logo-shard" data-growth="20" data-sector="2" style="--gi:20"/>
<path fill="#74f8ea" fill-rule="evenodd" d="M 1555,1033 L 1555,1037 L 1558,1039 L 1567,1042 L 1576,1043 L 1573,1039 L 1564,1034 L 1558,1032 Z" class="logo-shard" data-growth="47" data-sector="2" style="--gi:47"/>
<path fill="#2fa7a7" fill-rule="evenodd" d="M 1218,1121 L 1216,1124 L 1216,1131 L 1250,1150 L 1254,1148 L 1254,1143 L 1251,1139 L 1227,1123 L 1221,1120 Z" class="logo-shard" data-growth="12" data-sector="3" style="--gi:12"/>
<path fill="#39b8b3" fill-rule="evenodd" d="M 1392,1127 L 1393,1135 L 1407,1138 L 1411,1141 L 1430,1141 L 1431,1142 L 1439,1140 L 1439,1133 L 1433,1130 L 1428,1130 L 1424,1128 L 1414,1127 L 1410,1125 L 1399,1124 L 1398,1123 L 1395,1123 Z" class="logo-shard" data-growth="29" data-sector="2" style="--gi:29"/>
<path fill="#1e7e88" fill-rule="evenodd" d="M 1132,1135 L 1126,1139 L 1123,1145 L 1125,1150 L 1129,1155 L 1139,1176 L 1144,1176 L 1149,1174 L 1148,1159 L 1140,1139 L 1137,1136 Z" class="logo-shard" data-growth="6" data-sector="4" style="--gi:6"/>
<path fill="#73f9ea" fill-rule="evenodd" d="M 1501,1137 L 1501,1141 L 1515,1141 L 1517,1140 L 1517,1136 L 1515,1135 L 1506,1135 Z" class="logo-shard" data-growth="43" data-sector="2" style="--gi:43"/>
<path fill="#46d3c7" fill-rule="evenodd" d="M 1456,1137 L 1456,1141 L 1458,1143 L 1480,1143 L 1481,1141 L 1479,1137 L 1474,1137 L 1473,1136 L 1457,1136 Z" class="logo-shard" data-growth="35" data-sector="2" style="--gi:35"/>
<path fill="#45d3c7" fill-rule="evenodd" d="M 1270,1159 L 1268,1162 L 1268,1165 L 1276,1170 L 1279,1176 L 1287,1181 L 1289,1178 L 1287,1172 L 1278,1163 L 1272,1159 Z" class="logo-shard" data-growth="17" data-sector="3" style="--gi:17"/>
<path fill="#2ba6a6" fill-rule="evenodd" d="M 1150,1192 L 1146,1194 L 1147,1211 L 1149,1213 L 1154,1214 L 1155,1213 L 1155,1196 L 1154,1193 Z" class="logo-shard" data-growth="10" data-sector="4" style="--gi:10"/>
<path fill="#74f7ea" fill-rule="evenodd" d="M 1301,1195 L 1300,1198 L 1306,1207 L 1311,1208 L 1310,1202 L 1304,1196 Z" class="logo-shard" data-growth="25" data-sector="3" style="--gi:25"/>
<path fill="#6cf7ea" fill-rule="evenodd" d="M 1151,1233 L 1150,1234 L 1150,1246 L 1154,1247 L 1155,1234 Z" class="logo-shard" data-growth="15" data-sector="4" style="--gi:15"/>
<path fill="#31a8a8" fill-rule="evenodd" d="M 1482,1316 L 1480,1326 L 1513,1341 L 1521,1341 L 1523,1337 L 1522,1332 L 1491,1316 L 1485,1314 Z" class="logo-shard" data-growth="53" data-sector="3" style="--gi:53"/>
<path fill="#35b0ae" fill-rule="evenodd" d="M 1384,1348 L 1383,1350 L 1388,1359 L 1405,1383 L 1419,1399 L 1423,1399 L 1427,1395 L 1426,1388 L 1409,1367 L 1397,1347 L 1394,1344 L 1391,1344 Z" class="logo-shard" data-growth="46" data-sector="3" style="--gi:46"/>
<path fill="#47d4c7" fill-rule="evenodd" d="M 1539,1344 L 1538,1353 L 1555,1362 L 1559,1362 L 1561,1360 L 1562,1357 L 1556,1352 L 1544,1345 Z" class="logo-shard" data-growth="63" data-sector="3" style="--gi:63"/>
<path fill="#77f8ea" fill-rule="evenodd" d="M 1574,1370 L 1575,1374 L 1585,1380 L 1591,1380 L 1591,1378 L 1584,1372 L 1577,1369 Z" class="logo-shard" data-growth="69" data-sector="2" style="--gi:69"/>
<path fill="#47d5c8" fill-rule="evenodd" d="M 1437,1408 L 1435,1416 L 1445,1425 L 1466,1439 L 1474,1442 L 1476,1442 L 1478,1440 L 1478,1435 L 1475,1432 L 1461,1423 L 1442,1407 L 1439,1406 Z" class="logo-shard" data-growth="60" data-sector="3" style="--gi:60"/>
<path fill="#1f7f88" fill-rule="evenodd" d="M 106,1427 L 100,1426 L 97,1430 L 86,1458 L 82,1472 L 74,1490 L 73,1499 L 76,1501 L 82,1501 L 84,1499 L 94,1476 L 111,1442 L 114,1432 Z" class="logo-shard" data-growth="74" data-sector="4" style="--gi:74"/>
<path fill="#54dfd1" fill-rule="evenodd" d="M 1493,1446 L 1494,1451 L 1500,1454 L 1524,1459 L 1526,1457 L 1526,1455 L 1524,1453 L 1520,1453 L 1500,1445 L 1494,1445 Z" class="logo-shard" data-growth="68" data-sector="3" style="--gi:68"/>
<path fill="#75f8ec" fill-rule="evenodd" d="M 1543,1461 L 1544,1463 L 1568,1463 L 1567,1459 L 1544,1459 Z" class="logo-shard" data-growth="73" data-sector="3" style="--gi:73"/>
<path fill="#21858d" fill-rule="evenodd" d="M 1036,1464 L 1034,1466 L 1025,1486 L 1022,1500 L 1022,1507 L 1024,1509 L 1030,1509 L 1034,1506 L 1035,1499 L 1043,1476 L 1044,1468 Z" class="logo-shard" data-growth="32" data-sector="4" style="--gi:32"/>
<path fill="#48d5c9" fill-rule="evenodd" d="M 1347,1472 L 1347,1477 L 1350,1480 L 1367,1482 L 1376,1485 L 1380,1485 L 1392,1490 L 1395,1489 L 1398,1485 L 1397,1480 L 1385,1475 L 1360,1470 L 1348,1470 Z" class="logo-shard" data-growth="56" data-sector="3" style="--gi:56"/>
<path fill="#61e9db" fill-rule="evenodd" d="M 1412,1492 L 1411,1495 L 1413,1498 L 1433,1508 L 1443,1511 L 1444,1510 L 1444,1507 L 1434,1498 L 1419,1491 L 1415,1490 Z" class="logo-shard" data-growth="65" data-sector="3" style="--gi:65"/>
<path fill="#269196" fill-rule="evenodd" d="M 70,1516 L 65,1516 L 61,1523 L 55,1540 L 49,1552 L 47,1563 L 49,1565 L 55,1565 L 56,1564 L 62,1546 L 74,1520 Z" class="logo-shard" data-growth="76" data-sector="4" style="--gi:76"/>
<path fill="#4ad6c9" fill-rule="evenodd" d="M 1328,1524 L 1330,1529 L 1334,1533 L 1349,1542 L 1376,1562 L 1379,1562 L 1383,1559 L 1385,1555 L 1385,1552 L 1379,1546 L 1375,1544 L 1372,1541 L 1371,1538 L 1347,1520 L 1338,1516 L 1334,1516 Z" class="logo-shard" data-growth="62" data-sector="3" style="--gi:62"/>
<path fill="#78f8ea" fill-rule="evenodd" d="M 1457,1520 L 1458,1524 L 1470,1533 L 1476,1534 L 1475,1529 L 1467,1522 L 1460,1519 Z" class="logo-shard" data-growth="71" data-sector="3" style="--gi:71"/>
<path fill="#2fa7a7" fill-rule="evenodd" d="M 1025,1525 L 1021,1525 L 1018,1529 L 1018,1548 L 1017,1551 L 1018,1555 L 1020,1557 L 1026,1555 L 1028,1527 Z" class="logo-shard" data-growth="39" data-sector="4" style="--gi:39"/>
<path fill="#3dc0b9" fill-rule="evenodd" d="M 1267,1528 L 1263,1531 L 1264,1536 L 1271,1551 L 1273,1553 L 1282,1578 L 1286,1582 L 1292,1581 L 1293,1578 L 1292,1566 L 1290,1563 L 1289,1557 L 1287,1554 L 1280,1533 L 1277,1528 Z" class="logo-shard" data-growth="58" data-sector="4" style="--gi:58"/>
<path fill="#30a8a8" fill-rule="evenodd" d="M 1158,1541 L 1154,1543 L 1156,1564 L 1162,1584 L 1164,1586 L 1167,1586 L 1169,1584 L 1169,1570 L 1168,1569 L 1167,1554 L 1164,1542 Z" class="logo-shard" data-growth="49" data-sector="4" style="--gi:49"/>
<path fill="#58e0d3" fill-rule="evenodd" d="M 1397,1566 L 1393,1572 L 1394,1577 L 1418,1601 L 1424,1601 L 1425,1596 L 1415,1582 L 1402,1568 Z" class="logo-shard" data-growth="70" data-sector="3" style="--gi:70"/>
<path fill="#77f8ea" fill-rule="evenodd" d="M 1021,1574 L 1019,1577 L 1020,1591 L 1021,1592 L 1026,1592 L 1025,1576 L 1023,1574 Z" class="logo-shard" data-growth="51" data-sector="4" style="--gi:51"/>
<path fill="#3dc4bb" fill-rule="evenodd" d="M 44,1583 L 38,1583 L 32,1598 L 31,1605 L 29,1609 L 29,1614 L 32,1616 L 36,1614 L 36,1612 L 39,1608 L 45,1590 L 45,1584 Z" class="logo-shard" data-growth="77" data-sector="4" style="--gi:77"/>
<path fill="#47d4c7" fill-rule="evenodd" d="M 1291,1597 L 1289,1600 L 1291,1620 L 1294,1634 L 1297,1634 L 1298,1633 L 1297,1600 L 1296,1597 Z" class="logo-shard" data-growth="66" data-sector="3" style="--gi:66"/>
<path fill="#48d4c8" fill-rule="evenodd" d="M 1165,1602 L 1166,1630 L 1168,1632 L 1172,1632 L 1172,1602 Z" class="logo-shard" data-growth="59" data-sector="4" style="--gi:59"/>
<path fill="#78f8eb" fill-rule="evenodd" d="M 1437,1617 L 1435,1619 L 1435,1621 L 1438,1627 L 1444,1635 L 1449,1639 L 1450,1638 L 1450,1632 L 1448,1630 L 1448,1628 L 1440,1618 Z" class="logo-shard" data-growth="75" data-sector="3" style="--gi:75"/>
<path fill="#47d4c7" fill-rule="evenodd" d="M 27,1633 L 20,1632 L 14,1645 L 15,1653 L 21,1650 L 27,1636 Z" class="logo-shard" data-growth="78" data-sector="4" style="--gi:78"/>
<path fill="#7af8eb" fill-rule="evenodd" d="M 1171,1650 L 1166,1651 L 1166,1660 L 1165,1661 L 1165,1669 L 1166,1670 L 1168,1670 L 1170,1668 L 1172,1663 L 1172,1651 Z" class="logo-shard" data-growth="67" data-sector="4" style="--gi:67"/>
<path fill="#77f8eb" fill-rule="evenodd" d="M 1297,1651 L 1295,1653 L 1293,1659 L 1293,1674 L 1295,1674 L 1298,1668 L 1299,1652 Z" class="logo-shard" data-growth="72" data-sector="4" style="--gi:72"/>
<path fill="#74f8ea" fill-rule="evenodd" d="M 9,1669 L 6,1669 L 4,1672 L 2,1684 L 6,1683 L 9,1678 L 9,1673 L 10,1672 Z" class="logo-shard" data-growth="79" data-sector="4" style="--gi:79"/>
</svg>
